<svg width="20" height="21" viewBox="0 0 20 21" fill="none" xmlns="http://www.w3.org/2000/svg">
<path d="M6.25 3.73998L10 5.90665L13.75 3.73998M6.25 16.7233V12.3983L2.5 10.2316M17.5 10.2316L13.75 12.3983V16.7233M2.725 6.03165L10 10.24L17.275 6.03165M10 18.6316V10.2316M17.5 13.565V6.89831C17.4997 6.60604 17.4225 6.31899 17.2763 6.06595C17.13 5.81291 16.9198 5.60278 16.6667 5.45665L10.8333 2.12332C10.58 1.97703 10.2926 1.90002 10 1.90002C9.70744 1.90002 9.42003 1.97703 9.16667 2.12332L3.33333 5.45665C3.08022 5.60278 2.86998 5.81291 2.72372 6.06595C2.57745 6.31899 2.5003 6.60604 2.5 6.89831V13.565C2.5003 13.8573 2.57745 14.1443 2.72372 14.3973C2.86998 14.6504 3.08022 14.8605 3.33333 15.0066L9.16667 18.34C9.42003 18.4863 9.70744 18.5633 10 18.5633C10.2926 18.5633 10.58 18.4863 10.8333 18.34L16.6667 15.0066C16.9198 14.8605 17.13 14.6504 17.2763 14.3973C17.4225 14.1443 17.4997 13.8573 17.5 13.565Z" stroke="#00FFFF" stroke-linecap="round" stroke-linejoin="round"/>
</svg>
