<svg width="415" height="193" viewBox="0 0 415 193" fill="none" xmlns="http://www.w3.org/2000/svg">
<rect x="87.8999" y="1.23169" width="239" height="191" stroke="#8A2BE2" stroke-opacity="0.3"/>
<rect x="89" y="2.33179" width="236.8" height="188.8" fill="url(#paint0_linear_24_335)"/>
<rect x="89" y="2.33179" width="236.8" height="188.8" fill="url(#paint1_linear_24_335)"/>
<rect x="101.5" y="14.8318" width="47" height="35" fill="#0A0A0F"/>
<rect x="101.5" y="14.8318" width="47" height="35" stroke="#00FFFF"/>
<path d="M128.938 28.3943L132.875 32.3318L128.938 36.2693M121.062 36.2693L117.125 32.3318L121.062 28.3943M126.688 26.1443L123.312 38.5193" stroke="#00FFFF" stroke-width="1.125" stroke-linecap="round" stroke-linejoin="round"/>
<rect x="266.3" y="14.8318" width="47" height="35" fill="#0A0A0F"/>
<rect x="266.3" y="14.8318" width="47" height="35" stroke="#8A2BE2"/>
<path d="M295.987 28.113C295.987 29.8215 293.217 31.2068 289.8 31.2068C286.383 31.2068 283.612 29.8215 283.612 28.113M295.987 28.113C295.987 26.4045 293.217 25.0193 289.8 25.0193C286.383 25.0193 283.612 26.4045 283.612 28.113M295.987 28.113V36.5505C295.987 38.259 293.217 39.6443 289.8 39.6443C286.383 39.6443 283.612 38.259 283.612 36.5505V28.113M295.987 28.113V30.9255M283.612 28.113V30.9255M295.987 30.9255V33.738C295.987 35.4465 293.217 36.8318 289.8 36.8318C286.383 36.8318 283.612 35.4465 283.612 33.738V30.9255M295.987 30.9255C295.987 32.634 293.217 34.0193 289.8 34.0193C286.383 34.0193 283.612 32.634 283.612 30.9255" stroke="#8A2BE2" stroke-width="1.125" stroke-linecap="round" stroke-linejoin="round"/>
<rect x="101.5" y="143.632" width="47" height="35" fill="#0A0A0F"/>
<rect x="101.5" y="143.632" width="47" height="35" stroke="#FF0080"/>
<path d="M117.527 161.373C117.475 161.218 117.475 161.049 117.527 160.894C118.567 157.764 121.52 155.507 125 155.507C128.479 155.507 131.43 157.762 132.472 160.89C132.525 161.045 132.525 161.213 132.472 161.369C131.433 164.499 128.48 166.757 125 166.757C121.522 166.757 118.57 164.501 117.527 161.373Z" stroke="#FF0080" stroke-width="1.125" stroke-linecap="round" stroke-linejoin="round"/>
<path d="M127.25 161.132C127.25 161.728 127.013 162.301 126.591 162.723C126.169 163.145 125.597 163.382 125 163.382C124.403 163.382 123.831 163.145 123.409 162.723C122.987 162.301 122.75 161.728 122.75 161.132C122.75 160.535 122.987 159.963 123.409 159.541C123.831 159.119 124.403 158.882 125 158.882C125.597 158.882 126.169 159.119 126.591 159.541C127.013 159.963 127.25 160.535 127.25 161.132Z" stroke="#FF0080" stroke-width="1.125" stroke-linecap="round" stroke-linejoin="round"/>
<rect x="266.3" y="143.632" width="47" height="35" fill="#0A0A0F"/>
<rect x="266.3" y="143.632" width="47" height="35" stroke="#00FFFF"/>
<path d="M287.55 165.069V165.824C287.55 166.12 287.492 166.413 287.379 166.686C287.265 166.959 287.1 167.207 286.891 167.416L286.425 167.882H293.175L292.709 167.416C292.5 167.207 292.334 166.959 292.221 166.686C292.108 166.413 292.05 166.12 292.05 165.824V165.069M296.55 156.069V163.382C296.55 163.829 296.372 164.258 296.056 164.575C295.739 164.891 295.31 165.069 294.862 165.069H284.737C284.29 165.069 283.861 164.891 283.544 164.575C283.228 164.258 283.05 163.829 283.05 163.382V156.069M296.55 156.069C296.55 155.622 296.372 155.192 296.056 154.876C295.739 154.559 295.31 154.382 294.862 154.382H284.737C284.29 154.382 283.861 154.559 283.544 154.876C283.228 155.192 283.05 155.622 283.05 156.069M296.55 156.069V161.132C296.55 161.579 296.372 162.008 296.056 162.325C295.739 162.641 295.31 162.819 294.862 162.819H284.737C284.29 162.819 283.861 162.641 283.544 162.325C283.228 162.008 283.05 161.579 283.05 161.132V156.069" stroke="#00FFFF" stroke-width="1.125" stroke-linecap="round" stroke-linejoin="round"/>
<rect x="149" y="32.3318" width="60" height="1" fill="#00FFFF"/>
<rect x="205.8" y="32.3318" width="60" height="1" fill="#8A2BE2"/>
<rect x="149" y="160.132" width="60" height="1" fill="#FF0080"/>
<rect x="205.8" y="160.132" width="60" height="1" fill="#00FFFF"/>
<rect x="125" y="50.3318" width="1" height="48" fill="#00FFFF"/>
<rect x="288.8" y="50.3318" width="1" height="48" fill="#8A2BE2"/>
<rect x="125" y="95.1316" width="1" height="48" fill="#FF0080"/>
<rect x="288.8" y="95.1316" width="1" height="48" fill="#00FFFF"/>
<rect x="210.4" y="19.0918" width="6.00001" height="6.00001" transform="rotate(45 210.4 19.0918)" fill="#00FFFF"/>
<rect x="210.4" y="165.892" width="6.00001" height="6.00001" transform="rotate(45 210.4 165.892)" fill="#FF0080"/>
<rect x="110" y="95.4917" width="6.00001" height="6.00001" transform="rotate(45 110 95.4917)" fill="#8A2BE2"/>
<rect x="304.8" y="95.4917" width="6.00001" height="6.00001" transform="rotate(45 304.8 95.4917)" fill="#8A2BE2"/>
<rect x="193.5" y="82.5" width="29" height="29" fill="#01FFFF" fill-opacity="0.2"/>
<rect x="193.5" y="82.5" width="29" height="29" stroke="#00FFFF"/>
<path d="M204.25 90.5084L208 92.6751L211.75 90.5084M204.25 103.492V99.1667L200.5 97.0001M215.5 97.0001L211.75 99.1667V103.492M200.725 92.8001L208 97.0084L215.275 92.8001M208 105.4V97.0001M215.5 100.333V93.6667C215.5 93.3745 215.423 93.0874 215.276 92.8344C215.13 92.5813 214.92 92.3712 214.667 92.2251L208.833 88.8917C208.58 88.7455 208.293 88.6685 208 88.6685C207.707 88.6685 207.42 88.7455 207.167 88.8917L201.333 92.2251C201.08 92.3712 200.87 92.5813 200.724 92.8344C200.577 93.0874 200.5 93.3745 200.5 93.6667V100.333C200.5 100.626 200.577 100.913 200.724 101.166C200.87 101.419 201.08 101.629 201.333 101.775L207.167 105.108C207.42 105.255 207.707 105.332 208 105.332C208.293 105.332 208.58 105.255 208.833 105.108L214.667 101.775C214.92 101.629 215.13 101.419 215.276 101.166C215.423 100.913 215.5 100.626 215.5 100.333Z" stroke="#00FFFF" stroke-linecap="round" stroke-linejoin="round"/>
<defs>
<linearGradient id="paint0_linear_24_335" x1="89" y1="96.7318" x2="325.8" y2="96.7318" gradientUnits="userSpaceOnUse">
<stop offset="0.0666667" stop-color="#00FFFF" stop-opacity="0.1"/>
<stop offset="0.0666667" stop-color="#00FFFF" stop-opacity="0"/>
</linearGradient>
<linearGradient id="paint1_linear_24_335" x1="207.4" y1="2.33179" x2="207.4" y2="191.132" gradientUnits="userSpaceOnUse">
<stop offset="0.0666667" stop-color="#00FFFF" stop-opacity="0.1"/>
<stop offset="0.0666667" stop-color="#00FFFF" stop-opacity="0"/>
</linearGradient>
</defs>
</svg>
