<svg width="12" height="13" viewBox="0 0 12 13" fill="none" xmlns="http://www.w3.org/2000/svg">
<g clip-path="url(#clip0_294_1260)">
<path d="M11.1951 4.0449C10.6585 3.12561 9.93076 2.39781 9.01155 1.86133C8.09221 1.32483 7.08857 1.05664 5.9999 1.05664C4.91138 1.05664 3.9074 1.32491 2.98825 1.86133C2.06897 2.39778 1.34122 3.12561 0.80469 4.0449C0.268239 4.96415 0 5.96799 0 7.05638C0 8.36378 0.38144 9.53943 1.14451 10.5836C1.9075 11.6279 2.89317 12.3505 4.10143 12.7515C4.24208 12.7776 4.3462 12.7593 4.41389 12.6969C4.48162 12.6345 4.51544 12.5563 4.51544 12.4626C4.51544 12.447 4.5141 12.3064 4.5115 12.0408C4.50903 11.809 4.50771 11.5773 4.50756 11.3456L4.32786 11.3767C4.21329 11.3977 4.06876 11.4065 3.89427 11.404C3.71986 11.4016 3.5388 11.3833 3.35133 11.3493C3.16379 11.3156 2.98935 11.2375 2.82788 11.1151C2.66649 10.9927 2.55192 10.8325 2.4842 10.6347L2.40608 10.455C2.35401 10.3353 2.27203 10.2023 2.16003 10.0566C2.04804 9.91072 1.93478 9.81183 1.82021 9.75976L1.76551 9.7206C1.72907 9.69458 1.69524 9.6632 1.66397 9.62678C1.63272 9.59036 1.60933 9.55391 1.5937 9.51741C1.57805 9.48088 1.59102 9.45091 1.63275 9.42741C1.67448 9.4039 1.74989 9.3925 1.85931 9.3925L2.0155 9.41584C2.11967 9.43671 2.24852 9.49907 2.40222 9.6033C2.55584 9.70744 2.68212 9.84283 2.78109 10.0094C2.90094 10.223 3.04533 10.3858 3.21468 10.4978C3.3839 10.6098 3.5545 10.6657 3.72634 10.6657C3.89818 10.6657 4.0466 10.6526 4.17165 10.6267C4.29656 10.6007 4.41375 10.5615 4.52318 10.5095C4.57005 10.1604 4.69767 9.8922 4.90593 9.70473C4.6091 9.67354 4.34223 9.62656 4.10518 9.56409C3.86827 9.50154 3.62346 9.40002 3.3709 9.25926C3.1182 9.1187 2.90857 8.94415 2.74196 8.73592C2.57532 8.52758 2.43856 8.25406 2.33187 7.91561C2.22513 7.57702 2.17174 7.18644 2.17174 6.74376C2.17174 6.11345 2.37751 5.57708 2.78897 5.13435C2.59623 4.66048 2.61442 4.12926 2.84361 3.54073C2.99466 3.49381 3.21865 3.52902 3.51548 3.64616C3.81237 3.76336 4.02974 3.86375 4.16782 3.94699C4.30589 4.0302 4.41652 4.10072 4.49987 4.1579C4.98433 4.02254 5.48428 3.95484 5.99985 3.95484C6.51542 3.95484 7.01548 4.02254 7.49997 4.1579L7.79683 3.9705C7.99984 3.84545 8.23956 3.73085 8.51544 3.62668C8.79147 3.52256 9.00255 3.49389 9.14845 3.54081C9.38273 4.12936 9.40361 4.66056 9.21081 5.13443C9.62224 5.57717 9.82809 6.11367 9.82809 6.74384C9.82809 7.18652 9.77452 7.57833 9.66794 7.91952C9.56122 8.26076 9.42328 8.53401 9.25407 8.73983C9.08467 8.94563 8.8737 9.11881 8.62114 9.25935C8.36852 9.39999 8.12363 9.50151 7.88672 9.56406C7.6497 9.62661 7.38283 9.67362 7.08599 9.70487C7.35672 9.93915 7.49212 10.309 7.49212 10.8141V12.4624C7.49212 12.556 7.52468 12.6342 7.58986 12.6967C7.65495 12.759 7.75776 12.7774 7.8984 12.7513C9.10683 12.3503 10.0925 11.6277 10.8555 10.5834C11.6183 9.53922 11.9999 8.36356 11.9999 7.05616C11.9996 5.96791 11.7313 4.96415 11.1951 4.0449Z" fill="#8A2BE2"/>
</g>
<defs>
<clipPath id="clip0_294_1260">
<rect width="12" height="12" fill="white" transform="translate(0 0.909668)"/>
</clipPath>
</defs>
</svg>
