<svg width="12" height="13" viewBox="0 0 12 13" fill="none" xmlns="http://www.w3.org/2000/svg">
<path d="M10.2235 11.1357H8.4465V8.35117C8.4465 7.68717 8.433 6.83267 7.5205 6.83267C6.594 6.83267 6.4525 7.55517 6.4525 8.30217V11.1357H4.6755V5.40967H6.3825V6.19017H6.4055C6.644 5.74017 7.224 5.26517 8.0905 5.26517C9.891 5.26517 10.224 6.45017 10.224 7.99267L10.2235 11.1357ZM2.6685 4.62617C2.0965 4.62617 1.637 4.16317 1.637 3.59367C1.637 3.02467 2.097 2.56217 2.6685 2.56217C3.2385 2.56217 3.7005 3.02467 3.7005 3.59367C3.7005 4.16317 3.238 4.62617 2.6685 4.62617ZM3.5595 11.1357H1.7775V5.40967H3.5595V11.1357ZM11.1125 0.909668H0.8855C0.396 0.909668 0 1.29667 0 1.77417V12.0452C0 12.5232 0.396 12.9097 0.8855 12.9097H11.111C11.6 12.9097 12 12.5232 12 12.0452V1.77417C12 1.29667 11.6 0.909668 11.111 0.909668H11.1125Z" fill="#00FFFF"/>
</svg>
